<svg xmlns="http://www.w3.org/2000/svg" viewBox="0 0 287 48">
  <defs>
    <linearGradient id="iris" x1="5" y1="5" x2="43" y2="43" gradientUnits="userSpaceOnUse">
      <stop offset="0" stop-color="#9d7bff"/>
      <stop offset="1" stop-color="#7c3aed"/>
    </linearGradient>
  </defs>
  <path d="M34 5H15A10 10 0 0 0 5 15v18a10 10 0 0 0 10 10h18a10 10 0 0 0 10-10V14" fill="none" stroke="url(#iris)" stroke-width="4.5" stroke-linecap="round"/>
  <path d="M13.5 24.5 20 31 35 13" fill="none" stroke="url(#iris)" stroke-width="4.5" stroke-linecap="round" stroke-linejoin="round"/>
  <g fill="#1f1b2e"><path transform="translate(62.00 38) scale(0.04000 -0.04000)" d="M73.1610107421875 0V700H173.16021728515625V78.95343017578125H493.27545166015625V0Z"/><path transform="translate(83.48 38) scale(0.04000 -0.04000)" d="M297.9423828125 -12Q227.39068603515625 -12 170.8389892578125 20.8677978515625Q114.28729248046875 53.735595703125 81.91949462890625 113.235595703125Q49.55169677734375 172.735595703125 49.55169677734375 251Q49.55169677734375 331.264404296875 82.32754516601562 390.8563537597656Q115.1033935546875 450.44830322265625 171.97119140625 483.2241516113281Q228.8389892578125 516 299.39068603515625 516Q372.12628173828125 516 428.177978515625 483.2241516113281Q484.22967529296875 450.44830322265625 517.0974731445312 390.8563537597656Q549.9652709960938 331.264404296875 549.9652709960938 252Q549.9652709960938 172.735595703125 516.6894226074219 113.235595703125Q483.41357421875 53.735595703125 426.9538269042969 20.8677978515625Q370.49407958984375 -12 297.9423828125 -12ZM298.75848388671875 73.976318359375Q338.6322021484375 73.976318359375 372.322021484375 93.91317749023438Q406.0118408203125 113.85003662109375 426.8970031738281 153.7237548828125Q447.78216552734375 193.59747314453125 447.78216552734375 252Q447.78216552734375 311.2186279296875 427.3050537109375 350.6842956542969Q406.82794189453125 390.14996337890625 373.5461730957031 410.0868225097656Q340.264404296875 430.023681640625 299.5745849609375 430.023681640625Q260.70086669921875 430.023681640625 226.51104736328125 410.0868225097656Q192.32122802734375 390.14996337890625 172.02801513671875 350.6842956542969Q151.73480224609375 311.2186279296875 151.73480224609375 252Q151.73480224609375 193.59747314453125 172.11996459960938 153.7237548828125Q192.505126953125 113.85003662109375 225.78689575195312 93.91317749023438Q259.06866455078125 73.976318359375 298.75848388671875 73.976318359375Z"/><path transform="translate(107.40 38) scale(0.04000 -0.04000)" d="M301.0457763671875 -12Q228.5745849609375 -12 171.3389892578125 21.275848388671875Q114.1033935546875 54.55169677734375 81.82754516601562 113.95974731445312Q49.55169677734375 173.3677978515625 49.55169677734375 250.6322021484375Q49.55169677734375 330.264404296875 81.82754516601562 389.3563537597656Q114.1033935546875 448.44830322265625 171.3389892578125 482.2241516113281Q228.5745849609375 516 301.0457763671875 516Q393.43646240234375 516 455.1835021972656 468.21270751953125Q516.9305419921875 420.4254150390625 533.4822387695312 338.93133544921875H429.64404296875Q420.19573974609375 382.25335693359375 384.5978698730469 406.3224182128906Q349 430.3914794921875 300.0457763671875 430.3914794921875Q259.43646240234375 430.3914794921875 225.37884521484375 410.0868225097656Q191.32122802734375 389.78216552734375 171.52801513671875 349.72454833984375Q151.73480224609375 309.66693115234375 151.73480224609375 252Q151.73480224609375 208.86187744140625 163.447509765625 175.120361328125Q175.16021728515625 141.37884521484375 195.22927856445312 118.94198608398438Q215.29833984375 96.505126953125 242.591552734375 84.64877319335938Q269.884765625 72.79241943359375 300.0457763671875 72.79241943359375Q333.28729248046875 72.79241943359375 359.8046569824219 83.3729248046875Q386.322021484375 93.95343017578125 404.66693115234375 115.20639038085938Q423.0118408203125 136.4593505859375 429.64404296875 165.06866455078125H533.4822387695312Q516.9305419921875 85.75848388671875 454.6835021972656 36.879241943359375Q392.43646240234375 -12 301.0457763671875 -12Z"/><path transform="translate(130.72 38) scale(0.04000 -0.04000)" d="M234.55169677734375 -12Q173.18389892578125 -12 132.09194946289062 9.224151611328125Q91 30.44830322265625 71.09194946289062 65.67245483398438Q51.18389892578125 100.8966064453125 51.18389892578125 142.8966064453125Q51.18389892578125 192.24151611328125 76.764404296875 227.64956665039062Q102.34490966796875 263.0576171875 150.6610107421875 281.9254150390625Q198.97711181640625 300.793212890625 267 300.793212890625H397.0576171875Q397.0576171875 344.66693115234375 384.02880859375 373.96014404296875Q371 403.25335693359375 345.6148376464844 418.0580139160156Q320.22967529296875 432.8626708984375 281.06866455078125 432.8626708984375Q236.1949462890625 432.8626708984375 203.86148071289062 411.1614074707031Q171.52801513671875 389.46014404296875 164.0797119140625 346.50592041015625H63.91949462890625Q69.735595703125 400.6898193359375 100.14364624023438 438.0173645019531Q130.55169677734375 475.34490966796875 178.65509033203125 495.6724548339844Q226.75848388671875 516 281.2525634765625 516Q351.80426025390625 516 399.9593505859375 491.05169677734375Q448.11444091796875 466.1033935546875 472.58563232421875 420.6953430175781Q497.05682373046875 375.28729248046875 497.05682373046875 312V0H409.91949462890625L401.793212890625 85.13812255859375Q391.60931396484375 64.6898193359375 376.2012634277344 46.9254150390625Q360.793212890625 29.1610107421875 340.0690612792969 16.120758056640625Q319.34490966796875 3.08050537109375 293.3966064453125 -4.459747314453125Q267.44830322265625 -12 234.55169677734375 -12ZM253.620361328125 69.48223876953125Q285.677978515625 69.48223876953125 311.6953430175781 82.3271484375Q337.71270751953125 95.17205810546875 356.0576171875 118.00552368164062Q374.40252685546875 140.8389892578125 384.4427795410156 168.80465698242188Q394.4830322265625 196.77032470703125 395.40252685546875 227.82794189453125V230.2762451171875H276.5745849609375Q233.27545166015625 230.2762451171875 206.49368286132812 219.97158813476562Q179.7119140625 209.66693115234375 167.99920654296875 191.1898193359375Q156.2864990234375 172.71270751953125 156.2864990234375 149.28729248046875Q156.2864990234375 124.677978515625 167.77505493164062 106.79281616210938Q179.26361083984375 88.90765380859375 201.3729248046875 79.1949462890625Q223.48223876953125 69.48223876953125 253.620361328125 69.48223876953125Z"/><path transform="translate(153.00 38) scale(0.04000 -0.04000)" d="M68.8966064453125 0V720H168.89581298828125V0Z"/><path transform="translate(162.48 38) scale(0.04000 -0.04000)" d="M27.60931396484375 0 284.87371826171875 700H393.918701171875L650.3670043945312 0H544.4483032226562L338.80426025390625 579.552490234375L132.3441162109375 0ZM143.9542236328125 173.379638671875 171.6322021484375 253.149169921875H500.95343017578125L528.447509765625 173.379638671875Z"/><path transform="translate(189.60 38) scale(0.04000 -0.04000)" d="M301.0457763671875 -12Q228.5745849609375 -12 171.3389892578125 21.275848388671875Q114.1033935546875 54.55169677734375 81.82754516601562 113.95974731445312Q49.55169677734375 173.3677978515625 49.55169677734375 250.6322021484375Q49.55169677734375 330.264404296875 81.82754516601562 389.3563537597656Q114.1033935546875 448.44830322265625 171.3389892578125 482.2241516113281Q228.5745849609375 516 301.0457763671875 516Q393.43646240234375 516 455.1835021972656 468.21270751953125Q516.9305419921875 420.4254150390625 533.4822387695312 338.93133544921875H429.64404296875Q420.19573974609375 382.25335693359375 384.5978698730469 406.3224182128906Q349 430.3914794921875 300.0457763671875 430.3914794921875Q259.43646240234375 430.3914794921875 225.37884521484375 410.0868225097656Q191.32122802734375 389.78216552734375 171.52801513671875 349.72454833984375Q151.73480224609375 309.66693115234375 151.73480224609375 252Q151.73480224609375 208.86187744140625 163.447509765625 175.120361328125Q175.16021728515625 141.37884521484375 195.22927856445312 118.94198608398438Q215.29833984375 96.505126953125 242.591552734375 84.64877319335938Q269.884765625 72.79241943359375 300.0457763671875 72.79241943359375Q333.28729248046875 72.79241943359375 359.8046569824219 83.3729248046875Q386.322021484375 93.95343017578125 404.66693115234375 115.20639038085938Q423.0118408203125 136.4593505859375 429.64404296875 165.06866455078125H533.4822387695312Q516.9305419921875 85.75848388671875 454.6835021972656 36.879241943359375Q392.43646240234375 -12 301.0457763671875 -12Z"/><path transform="translate(212.92 38) scale(0.04000 -0.04000)" d="M276.091552734375 0Q228.70086669921875 0 193.58602905273438 14.827545166015625Q158.47119140625 29.65509033203125 139.59194946289062 64.71823120117188Q120.71270751953125 99.7813720703125 120.71270751953125 159.7237548828125V419.94317626953125H33.08050537109375V504H120.71270751953125L132.81610107421875 630.9652709960938H220.52801513671875V504H362.29833984375V419.94317626953125H220.7119140625V159.35595703125Q220.7119140625 116.4017333984375 238.42462158203125 100.91317749023438Q256.1373291015625 85.42462158203125 300.4593505859375 85.42462158203125H357.95343017578125V0Z"/><path transform="translate(229.12 38) scale(0.04000 -0.04000)" d="M75.24151611328125 0V504H175.24072265625V0ZM125.33306884765625 599.0465698242188Q96.65509033203125 599.0465698242188 78.04025268554688 617.20166015625Q59.4254150390625 635.3567504882812 59.4254150390625 662.7474365234375Q59.4254150390625 690.322021484375 78.04025268554688 707.6610107421875Q96.65509033203125 725 125.33306884765625 725Q153.37884521484375 725 172.4017333984375 707.6610107421875Q191.42462158203125 690.322021484375 191.42462158203125 662.7474365234375Q191.42462158203125 635.3567504882812 172.4017333984375 617.20166015625Q153.37884521484375 599.0465698242188 125.33306884765625 599.0465698242188Z"/><path transform="translate(239.16 38) scale(0.04000 -0.04000)" d="M297.9423828125 -12Q227.39068603515625 -12 170.8389892578125 20.8677978515625Q114.28729248046875 53.735595703125 81.91949462890625 113.235595703125Q49.55169677734375 172.735595703125 49.55169677734375 251Q49.55169677734375 331.264404296875 82.32754516601562 390.8563537597656Q115.1033935546875 450.44830322265625 171.97119140625 483.2241516113281Q228.8389892578125 516 299.39068603515625 516Q372.12628173828125 516 428.177978515625 483.2241516113281Q484.22967529296875 450.44830322265625 517.0974731445312 390.8563537597656Q549.9652709960938 331.264404296875 549.9652709960938 252Q549.9652709960938 172.735595703125 516.6894226074219 113.235595703125Q483.41357421875 53.735595703125 426.9538269042969 20.8677978515625Q370.49407958984375 -12 297.9423828125 -12ZM298.75848388671875 73.976318359375Q338.6322021484375 73.976318359375 372.322021484375 93.91317749023438Q406.0118408203125 113.85003662109375 426.8970031738281 153.7237548828125Q447.78216552734375 193.59747314453125 447.78216552734375 252Q447.78216552734375 311.2186279296875 427.3050537109375 350.6842956542969Q406.82794189453125 390.14996337890625 373.5461730957031 410.0868225097656Q340.264404296875 430.023681640625 299.5745849609375 430.023681640625Q260.70086669921875 430.023681640625 226.51104736328125 410.0868225097656Q192.32122802734375 390.14996337890625 172.02801513671875 350.6842956542969Q151.73480224609375 311.2186279296875 151.73480224609375 252Q151.73480224609375 193.59747314453125 172.11996459960938 153.7237548828125Q192.505126953125 113.85003662109375 225.78689575195312 93.91317749023438Q259.06866455078125 73.976318359375 298.75848388671875 73.976318359375Z"/><path transform="translate(263.08 38) scale(0.04000 -0.04000)" d="M68.8966064453125 0V504H158.32122802734375L163.976318359375 417.8389892578125Q187.79241943359375 463.55169677734375 231.64877319335938 489.7758483886719Q275.505126953125 516 333.24072265625 516Q393.3441162109375 516 436.3441162109375 491.6724548339844Q479.3441162109375 467.34490966796875 502.976318359375 419.10931396484375Q526.6085205078125 370.87371826171875 526.6085205078125 297.87371826171875V0H426.793212890625V287.77032470703125Q426.793212890625 358.62115478515625 395.7758483886719 394.78216552734375Q364.75848388671875 430.94317626953125 306.149169921875 430.94317626953125Q266.90765380859375 430.94317626953125 236.02249145507812 411.91436767578125Q205.1373291015625 392.88555908203125 187.01657104492188 357.2359924316406Q168.89581298828125 321.58642578125 168.89581298828125 269V0Z"/></g>
</svg>
